<svg xmlns="http://www.w3.org/2000/svg" viewBox="62 212 488 326" enable-background="new 62 212 488 326"><path fill="#231F20" stroke="#231F20" stroke-width="3" stroke-miterlimit="10" d="M155.3 418.3c34.1 76.7 123.7 111.4 200.5 77.8l.9-.4s.6-.3.9-.4c37.9-17.4 54.8-62.1 37.8-100.3-17.1-38.5-62.2-55.8-100.7-38.7-38.5 17.1-83.6-.2-100.7-38.7-17-38.2-.1-82.9 37.8-100.3-76.5 34.6-110.7 124.3-76.5 201zm151.9 15.9c-4.5-10.2 0-22.1 10.2-26.7s22.1 0 26.7 10.2c4.5 10.2 0 22.1-10.2 26.7-10.2 4.6-22.1 0-26.7-10.2z"/><path fill="#fff" stroke="#231F20" stroke-width="4" stroke-miterlimit="10" d="M218.1 354.5c17.1 38.5 62.2 55.8 100.7 38.7 38.5-17.1 83.6.2 100.7 38.7 17 38.2.1 82.9-37.8 100.3 76.4-34.6 110.6-124.4 76.4-201.1s-123.8-111.3-200.6-77.7l-.9.4s-.6.3-.9.4c-37.6 17.4-54.6 62.1-37.6 100.3zm51.3-22.9c-4.5-10.2 0-22.1 10.2-26.7s22.1 0 26.7 10.2c4.5 10.2 0 22.1-10.2 26.7s-22.2 0-26.7-10.2z"/><path fill="#231F20" d="M518.5 521.1h-421.8c-13.4 0-24.3-10.9-24.3-24.3v-245.2c0-13.4 10.9-24.3 24.3-24.3h421.7c13.4 0 24.3 10.9 24.3 24.3v245.2c0 13.4-10.9 24.3-24.2 24.3zm-421.8-282.8c-7.3 0-13.3 6-13.3 13.3v245.2c0 7.3 6 13.3 13.3 13.3h421.7c7.3 0 13.3-6 13.3-13.3v-245.2c0-7.3-6-13.3-13.3-13.3h-421.7z"/><path fill="#fff" d="M518.5 518.6h-421.8c-12 0-21.8-9.8-21.8-21.8v-245.2c0-12 9.8-21.8 21.8-21.8h421.7c12 0 21.8 9.8 21.8 21.8v245.2c0 12-9.7 21.8-21.7 21.8zm-421.8-282.8c-8.7 0-15.8 7.1-15.8 15.8v245.2c0 8.7 7.1 15.8 15.8 15.8h421.7c8.7 0 15.8-7.1 15.8-15.8v-245.2c0-8.7-7.1-15.8-15.8-15.8h-421.7z"/><path fill="#231F20" d="M438 370.6h-260c-6.7 0-19-4.5-48-43.4-17.1-23-34.1-49.9-42.8-64-4.9-8.1-6-10.9-6.3-12.6l9.2-12.7c.7 3.9 3.1 14.2 6.4 19.6 8.5 13.9 25.3 40.5 42.2 63.1 27 36.2 36.8 39 39.2 39h260c2.4 0 12.2-2.8 39.2-39 16.9-22.6 33.7-49.3 42.2-63.1 3.3-5.4 5.5-14.8 6.2-18.7l8.6 12.8c-.3 1.6-.5 3.6-5.5 11.6-8.6 14-25.6 41-42.8 64-28.8 38.9-41.1 43.4-47.8 43.4z"/><path fill="#fff" d="M438 368.1h-260c-3.5 0-14.3 0-46-42.4-17.1-22.9-34-49.8-42.6-63.8-4.8-7.8-7.6-22.6-7.7-23.3l5.9-1.1c0 .1 2.7 14.4 6.9 21.2 39.1 63.7 71.1 103.3 83.5 103.3h260c12.4 0 44.4-39.6 83.5-103.3 4.2-6.9 6.9-21.1 6.9-21.2l5.9 1.1c-.1.6-2.9 15.5-7.7 23.3-8.6 14-25.6 40.9-42.6 63.8-31.7 42.4-42.5 42.4-46 42.4z"/></svg>