<?xml version="1.0" encoding="utf-8"?>
<!-- Generator: Adobe Illustrator 18.0.0, SVG Export Plug-In . SVG Version: 6.00 Build 0)  -->
<!DOCTYPE svg PUBLIC "-//W3C//DTD SVG 1.1//EN" "http://www.w3.org/Graphics/SVG/1.1/DTD/svg11.dtd">
<svg version="1.1" id="Layer_1" xmlns="http://www.w3.org/2000/svg" xmlns:xlink="http://www.w3.org/1999/xlink" x="0px" y="0px"
	 viewBox="62 212 488 326" enable-background="new 62 212 488 326" xml:space="preserve">
<path fill="#231F20" stroke="#231F20" stroke-width="3" stroke-miterlimit="10" d="M155.3,418.3C189.4,495,279,529.7,355.8,496.1
	c0.3-0.1,0.6-0.3,0.9-0.4s0.6-0.3,0.9-0.4c37.9-17.4,54.8-62.1,37.8-100.3c-17.1-38.5-62.2-55.8-100.7-38.7
	c-38.5,17.1-83.6-0.2-100.7-38.7c-17-38.2-0.1-82.9,37.8-100.3C155.3,251.9,121.1,341.6,155.3,418.3z M307.2,434.2
	c-4.5-10.2,0-22.1,10.2-26.7s22.1,0,26.7,10.2c4.5,10.2,0,22.1-10.2,26.7C323.7,449,311.8,444.4,307.2,434.2z"/>
<path fill="#FFFFFF" stroke="#231F20" stroke-width="4" stroke-miterlimit="10" d="M218.1,354.5c17.1,38.5,62.2,55.8,100.7,38.7
	c38.5-17.1,83.6,0.2,100.7,38.7c17,38.2,0.1,82.9-37.8,100.3c76.4-34.6,110.6-124.4,76.4-201.1s-123.8-111.3-200.6-77.7
	c-0.3,0.1-0.6,0.3-0.9,0.4s-0.6,0.3-0.9,0.4C218.1,271.6,201.1,316.3,218.1,354.5z M269.4,331.6c-4.5-10.2,0-22.1,10.2-26.7
	s22.1,0,26.7,10.2c4.5,10.2,0,22.1-10.2,26.7S273.9,341.8,269.4,331.6z"/>
<g>
	<g>
		<g>
			<path fill="#231F20" d="M518.5,521.1H96.7c-13.4,0-24.3-10.9-24.3-24.3V251.6c0-13.4,10.9-24.3,24.3-24.3h421.7
				c13.4,0,24.3,10.9,24.3,24.3v245.2C542.7,510.2,531.8,521.1,518.5,521.1z M96.7,238.3c-7.3,0-13.3,6-13.3,13.3v245.2
				c0,7.3,6,13.3,13.3,13.3h421.7c7.3,0,13.3-6,13.3-13.3V251.6c0-7.3-6-13.3-13.3-13.3H96.7z"/>
		</g>
		<g>
			<path fill="#FFFFFF" d="M518.5,518.6H96.7c-12,0-21.8-9.8-21.8-21.8V251.6c0-12,9.8-21.8,21.8-21.8h421.7
				c12,0,21.8,9.8,21.8,21.8v245.2C540.2,508.8,530.5,518.6,518.5,518.6z M96.7,235.8c-8.7,0-15.8,7.1-15.8,15.8v245.2
				c0,8.7,7.1,15.8,15.8,15.8h421.7c8.7,0,15.8-7.1,15.8-15.8V251.6c0-8.7-7.1-15.8-15.8-15.8H96.7z"/>
		</g>
	</g>
	<g>
		<g>
			<path fill="#231F20" d="M438,370.6H178c-6.7,0-19-4.5-48-43.4c-17.1-23-34.1-49.9-42.8-64c-4.9-8.1-6-10.9-6.3-12.6l9.2-12.7
				c0.7,3.9,3.1,14.2,6.4,19.6c8.5,13.9,25.3,40.5,42.2,63.1c27,36.2,36.8,39,39.2,39h260c2.4,0,12.2-2.8,39.2-39
				c16.9-22.6,33.7-49.3,42.2-63.1c3.3-5.4,5.5-14.8,6.2-18.7l8.6,12.8c-0.3,1.6-0.5,3.6-5.5,11.6c-8.6,14-25.6,41-42.8,64
				C457,366.1,444.7,370.6,438,370.6z"/>
		</g>
		<g>
			<path fill="#FFFFFF" d="M438,368.1H178c-3.5,0-14.3,0-46-42.4c-17.1-22.9-34-49.8-42.6-63.8c-4.8-7.8-7.6-22.6-7.7-23.3l5.9-1.1
				c0,0.1,2.7,14.4,6.9,21.2c39.1,63.7,71.1,103.3,83.5,103.3h260c12.4,0,44.4-39.6,83.5-103.3c4.2-6.9,6.9-21.1,6.9-21.2l5.9,1.1
				c-0.1,0.6-2.9,15.5-7.7,23.3c-8.6,14-25.6,40.9-42.6,63.8C452.3,368.1,441.5,368.1,438,368.1z"/>
		</g>
	</g>
</g>
</svg>
